<?xml version="1.0" encoding="utf-8"?>
<!-- Generator: Adobe Illustrator 26.0.3, SVG Export Plug-In . SVG Version: 6.00 Build 0)  -->
<svg version="1.1" id="Camada_1" xmlns="http://www.w3.org/2000/svg" xmlns:xlink="http://www.w3.org/1999/xlink" x="0px" y="0px"
	 viewBox="0 0 550 550" style="enable-background:new 0 0 550 550;" xml:space="preserve">
<style type="text/css">
	.st0{fill:#4863F7;}
</style>
<path class="st0" d="M243.4,324.4c0-13.4-0.3-26.2,0-39c1.4-56.1,2.6-112.3,4.8-168.4c0.9-22.7-12.1-41.4-40.7-42.6
	c-4.5-0.2-8.9-0.4-13-2.4c-2.5-1.3-4.7-3.1-6.2-5.5c-1.7-2.7-3.5-6.1-2.3-8.9c1.2-2.7,4.9-1.1,7.5-1.1c55-0.1,110.1-0.1,165.1-0.1
	c6.2,0,6.6,0.5,4.5,6.5c-2.4,7.1-8.7,11.1-18,11.3c-10.2,0.2-20,1.9-28.5,8.1c-10,7.3-15.2,17.3-14.8,29.7c1.6,60,3.4,120.1,5,180.1
	c0.3,10.6,0,21.1,0,32.5c46.1-10.9,79-35.5,95.4-79.8c6.2-16.6,7-34.1,8.8-51.4c2.5-24,5.6-47.9,13.3-71C439,78.2,468,57,514.5,56.4
	c10.4-0.1,10-0.1,10.5,10.4c0.2,5.5-1.2,8.3-6.8,10.5c-21.7,8.7-30.8,26.5-33.6,48.6c-2.7,21.5-2.6,43-3.4,64.6
	c-0.7,19.5-0.4,39.1-6.3,58c-18.2,58.8-58.2,94.1-117.5,108.2c-14.7,3.5-29.7,4.5-44.8,3.8c-3.3-0.2-4.1,0.8-4,4
	c0.8,22.9,1.1,45.7,2.1,68.6c1.2,26,17.7,41.9,43.8,43c9.7,0.4,15.8,4.9,18,12.9c1,3.8,0.4,5.1-3.9,5c-37.7-0.2-75.5-0.1-113.2-0.1
	c-24.7,0-49.5-0.1-74.2,0.1c-4.3,0-5-1.2-3.9-5c2.1-7.6,8-12.3,16.9-12.9c29.6-2,44.5-17.8,45.1-47.5c0.4-20.8,1.1-41.6,1.9-62.4
	c0.2-4.6-0.9-5.7-5.6-5.7c-60.9,0.5-110.4-21.6-144-74c-14.1-22-20.9-46.4-22.1-72.6c-1.1-25.8-1-51.7-3.1-77.4
	c-0.6-7-1.6-14-3.1-20.9c-4.1-18.9-15.1-31.9-33.1-38.9c-4.2-1.6-5.3-3.8-5.2-8.1c0.3-12.2,0.1-12.2,12.1-12
	c47.4,0.8,76.7,24.3,90.6,72.8c7.2,24.9,10.3,50.6,12.2,76.3c3.2,43.1,20.6,77.8,57.8,101.2C211.4,315.4,226.2,321,243.4,324.4z"/>
</svg>
